<svg xmlns="http://www.w3.org/2000/svg" width="32" height="32" viewBox="0 0 24 24" fill="none">
  <!-- White thick background strokes for high visibility on any background -->
  <path d="m7 21-4.3-4.3c-1-1-1-2.5 0-3.4l9.6-9.6c1-1 2.5-1 3.4 0l5.6 5.6c1 1 1 2.5 0 3.4L13 21" stroke="#FFFFFF" stroke-width="4.5" stroke-linecap="round" stroke-linejoin="round" />
  <path d="M22 21H7" stroke="#FFFFFF" stroke-width="4.5" stroke-linecap="round" stroke-linejoin="round" />
  <path d="m5 11 9 9" stroke="#FFFFFF" stroke-width="4.5" stroke-linecap="round" stroke-linejoin="round" />
  
  <!-- Foreground stroke and fill matching Lucide Eraser design -->
  <path d="m7 21-4.3-4.3c-1-1-1-2.5 0-3.4l9.6-9.6c1-1 2.5-1 3.4 0l5.6 5.6c1 1 1 2.5 0 3.4L13 21" stroke="#333333" stroke-width="2" stroke-linecap="round" stroke-linejoin="round" fill="#FFFFFF" />
  <path d="M22 21H7" stroke="#333333" stroke-width="2" stroke-linecap="round" stroke-linejoin="round" />
  <path d="m5 11 9 9" stroke="#333333" stroke-width="2" stroke-linecap="round" stroke-linejoin="round" />
</svg>