<svg viewBox="448 166 640 640" width="640" height="640" version="1.1" xmlns="http://www.w3.org/2000/svg" desc="Created with imagetracer.js version 1.2.6" ><path fill="rgb(0,0,0)" stroke="rgb(0,0,0)" stroke-width="1" opacity="0" d="M 0 0 L 1536 0 L 1536 1024 L 0 1024 L 0 0 Z M 748 180 L 748 181 L 750 181 L 748 180 Z M 782 180 L 782 181 L 784 181 L 782 180 Z M 768 181 L 767 182 L 744 182 L 743 183 L 733 183 L 732 184 L 718 185 L 688 191 L 684 193 L 681 192 L 680 194 L 662 199 L 639 208 L 608 224 L 593 234 L 593 233 L 592 232 Q 589 233 591 235 L 554 264 L 538 280 L 537 279 L 536 283 L 515 308 L 513 307 L 514 310 L 496 337 Q 483 361 473 389 L 462 433 L 458 472 L 458 474 L 459 515 L 460 516 L 460 525 L 461 526 L 462 538 L 465 549 L 464 554 L 466 553 L 467 560 L 464 561 L 466 565 L 464 566 L 470 568 L 470 572 L 475 585 L 475 586 L 474 584 L 472 588 L 474 588 L 473 590 L 475 590 L 476 592 L 477 590 Q 486 618 501 641 L 500 643 L 502 642 L 507 650 L 504 649 L 506 653 Q 507 655 509 653 Q 520 671 534 687 Q 557 713 587 733 L 588 736 L 590 735 L 612 750 L 644 766 Q 646 765 645 768 L 647 767 L 653 770 Q 655 769 654 772 L 656 771 L 685 781 L 719 788 L 732 789 L 733 790 L 743 790 L 744 791 L 773 792 L 777 792 L 779 791 L 797 791 L 798 790 L 806 790 L 821 787 L 827 787 L 846 783 L 881 772 L 918 755 L 949 736 L 960 727 L 962 728 L 961 727 L 972 718 L 980 710 L 981 711 Q 1004 688 1024 661 L 1049 619 Q 1060 596 1068 570 L 1076 533 L 1077 517 L 1078 516 L 1078 504 L 1079 503 L 1079 468 L 1078 467 L 1077 446 L 1072 422 L 1072 417 L 1070 413 L 1071 410 L 1071 413 L 1072 413 L 1072 408 L 1069 409 L 1066 396 L 1059 376 L 1040 335 Q 1022 303 997 278 L 999 278 L 999 274 L 996 276 Q 954 233 896 207 Q 893 208 894 206 L 893 206 L 893 204 L 891 205 L 861 194 L 841 189 Q 836 190 837 188 L 836 188 L 819 185 L 817 185 L 807 184 L 805 184 L 804 183 L 794 183 L 793 182 L 769 182 L 768 181 Z M 713 184 L 713 185 L 717 185 L 713 184 Z M 821 184 L 821 185 L 825 185 L 821 184 Z M 707 185 L 707 186 L 709 186 L 707 185 Z M 697 186 L 696 188 L 699 188 L 697 186 Z M 926 217 L 927 219 Q 928 216 926 217 Z M 586 232 L 585 236 L 587 236 L 586 232 Z M 588 232 Q 586 235 589 234 L 588 232 Z M 957 240 L 958 242 Q 959 239 957 240 Z M 540 273 L 541 276 L 541 274 L 543 274 L 540 273 Z M 494 337 L 493 339 Q 489 340 493 342 L 494 340 L 494 337 Z M 490 338 L 491 340 Q 492 337 490 338 Z M 1045 339 Q 1043 342 1046 341 L 1045 339 Z M 474 380 L 475 382 Q 476 379 474 380 Z M 1068 400 L 1068 402 L 1071 403 L 1070 402 Q 1071 399 1068 400 Z M 457 483 L 456 487 L 457 487 L 457 483 Z M 469 569 L 468 572 L 469 572 L 469 569 Z M 491 627 L 492 630 L 493 628 L 491 627 Z M 1045 629 L 1044 632 L 1047 632 L 1045 631 L 1045 629 Z M 496 637 L 496 638 L 498 638 L 496 637 Z M 499 638 L 496 640 L 499 640 L 499 638 Z M 523 674 L 521 677 L 523 677 L 523 674 Z M 538 691 L 537 694 L 538 694 L 538 691 Z M 997 697 L 996 700 L 997 700 L 997 697 Z M 545 699 L 544 702 L 546 703 L 547 701 L 545 699 Z M 554 707 L 554 710 Q 557 709 554 707 Z M 561 713 L 560 715 L 563 716 L 561 713 Z M 564 716 L 562 719 L 564 718 L 566 719 L 564 716 Z M 596 741 L 597 743 Q 598 740 596 741 Z M 619 754 L 617 756 L 619 756 L 619 754 Z M 656 772 L 655 774 L 658 775 L 660 774 L 656 772 Z M 714 788 L 714 789 L 716 789 L 714 788 Z M 721 789 L 722 791 Q 726 790 728 792 L 728 790 L 721 789 Z " /><path fill="rgb(0,0,0)" stroke="rgb(0,0,0)" stroke-width="1" opacity="0" d="M 639.5 431 L 642 432.5 L 640.5 432 L 639.5 431 Z " /><path fill="rgb(0,0,0)" stroke="rgb(0,0,0)" stroke-width="1" opacity="0" d="M 895.5 438 L 894.5 440 L 895.5 438 Z " /><path fill="rgb(0,0,0)" stroke="rgb(0,0,0)" stroke-width="1" opacity="0" d="M 467.5 561 L 469 566.5 L 468 566.5 L 467.5 561 Z " /><path fill="rgb(253,249,237)" stroke="rgb(253,249,237)" stroke-width="1" opacity="0.9921568627450981" d="M 705.5 184 L 706.5 186 L 705.5 184 Z " /><path fill="rgb(253,249,237)" stroke="rgb(253,249,237)" stroke-width="1" opacity="0.9921568627450981" d="M 714.5 184 L 717 184.5 L 714.5 185 L 714.5 184 Z " /><path fill="rgb(253,249,237)" stroke="rgb(253,249,237)" stroke-width="1" opacity="0.9921568627450981" d="M 742.5 196 L 793.5 196 L 794.5 197 L 812.5 198 L 847.5 205 L 878.5 215 Q 944.4 241.6 989 289.5 Q 1028.1 330.9 1049 390.5 L 1058 423.5 L 1061 439.5 L 1063 466.5 L 1064 467.5 L 1064 504.5 L 1063 505.5 L 1063 516.5 L 1062 517.5 L 1062 524.5 L 1058 547.5 Q 1051.1 578.6 1039 604.5 Q 1012.1 662.1 967.5 702 Q 928.3 737.8 874.5 759 L 833.5 771 L 804.5 776 L 795.5 776 L 794.5 777 L 745.5 777 L 744.5 776 L 726.5 775 L 691.5 768 L 674.5 763 L 646.5 752 Q 589.3 725.3 549 681.5 Q 510.8 640.2 489 582.5 L 479 548.5 L 475 525.5 L 474 506.5 L 473 505.5 L 473 465.5 L 474 464.5 L 474 453.5 L 475 452.5 L 475 445.5 L 479 422.5 Q 485.6 392.6 497 367.5 Q 520.9 314.4 560.5 277 Q 596.1 242.6 644.5 221 L 681.5 207 L 711.5 200 L 730.5 198 L 731.5 197 L 741.5 197 L 742.5 196 Z M 615 335 L 606 338 L 599 345 L 596 355 L 596 366 L 597 367 L 582 367 L 574 370 Q 566 375 564 385 L 564 458 L 565 459 L 559 461 L 564 472 L 564 629 L 565 634 L 570 642 L 581 647 L 590 647 L 604 644 L 630 642 L 631 641 L 644 641 L 645 640 L 689 640 L 690 641 L 700 641 L 701 642 L 715 643 L 733 647 L 757 656 L 767 658 L 774 658 L 782 656 L 803 648 L 819 644 L 830 643 L 831 642 L 839 642 L 840 641 L 851 641 L 852 640 L 897 640 L 898 641 L 910 641 L 911 642 L 935 644 L 950 647 Q 962 649 967 643 Q 972 639 974 631 L 974 443 L 981 438 L 974 427 L 974 386 L 970 376 L 961 368 L 940 367 L 940 350 L 937 344 L 932 338 L 922 335 L 876 337 L 831 346 Q 794 356 770 379 Q 760 369 748 362 Q 728 351 705 345 L 681 340 L 659 338 L 658 337 L 615 335 Z " /><path fill="rgb(253,249,237)" stroke="rgb(253,249,237)" stroke-width="1" opacity="0.9921568627450981" d="M 891.5 204 L 894 205.5 L 892.5 205 L 891.5 204 Z " /><path fill="rgb(253,249,237)" stroke="rgb(253,249,237)" stroke-width="1" opacity="0.9921568627450981" d="M 949.5 213 L 948.5 215 L 949.5 213 Z " /><path fill="rgb(253,249,237)" stroke="rgb(253,249,237)" stroke-width="1" opacity="0.9921568627450981" d="M 949.5 233 Q 952.5 234.5 949.5 236 L 949.5 233 Z " /><path fill="rgb(253,249,237)" stroke="rgb(253,249,237)" stroke-width="1" opacity="0.9921568627450981" d="M 561.5 248 L 560.5 250 L 561.5 248 Z " /><path fill="rgb(253,249,237)" stroke="rgb(253,249,237)" stroke-width="1" opacity="0.9921568627450981" d="M 971.5 250 L 970.5 252 L 971.5 250 Z " /><path fill="rgb(253,249,237)" stroke="rgb(253,249,237)" stroke-width="1" opacity="0.9921568627450981" d="M 544.5 265 L 546 267.5 L 545 267.5 L 544.5 265 Z " /><path fill="rgb(253,249,237)" stroke="rgb(253,249,237)" stroke-width="1" opacity="0.9921568627450981" d="M 996.5 275 Q 999.8 273.9 999 276.5 L 997.5 276 L 996.5 275 Z " /><path fill="rgb(253,249,237)" stroke="rgb(253,249,237)" stroke-width="1" opacity="0.9921568627450981" d="M 493.5 337 L 494 338.5 L 491 340.5 L 493.5 337 Z " /><path fill="rgb(253,249,237)" stroke="rgb(253,249,237)" stroke-width="1" opacity="0.9921568627450981" d="M 616.5 347 L 658.5 349 L 698.5 356 L 725.5 365 Q 744.2 372.8 758 385.5 L 763 394.5 L 763 636.5 L 760.5 635 Q 737.2 618.3 706.5 609 L 686.5 604 L 663.5 601 L 662.5 600 L 614.5 598 L 610 594.5 L 609 592.5 L 609 536 L 677 508 L 647 441.5 L 640.5 430 L 609 442 L 609 354.5 L 611 350 L 616.5 347 Z " /><path fill="rgb(253,249,237)" stroke="rgb(253,249,237)" stroke-width="1" opacity="0.9921568627450981" d="M 904.5 347 L 921.5 347 L 927 351.5 L 928 354.5 L 928 417.5 L 890 441.5 L 881 473 L 916.5 481 L 927.5 473 L 928 591.5 L 926 596 L 922.5 598 L 885.5 599 L 884.5 600 L 867.5 601 L 834.5 608 Q 800.4 617.9 775.5 637 L 775 394.5 Q 777.4 385.9 784.5 382 Q 804.8 366.3 832.5 358 L 862.5 351 L 886.5 349 L 887.5 348 L 903.5 348 L 904.5 347 Z " /><path fill="rgb(253,249,237)" stroke="rgb(253,249,237)" stroke-width="1" opacity="0.9921568627450981" d="M 584.5 379 L 595.5 379 L 596 379.5 L 596 445.5 L 596.5 447 L 577 454 L 577 385.5 L 581.5 380 L 584.5 379 Z " /><path fill="rgb(253,249,237)" stroke="rgb(253,249,237)" stroke-width="1" opacity="0.9921568627450981" d="M 940 379 L 953.5 379 L 959 382.5 L 961 386.5 L 961 406.5 L 958 404.5 L 954.5 400 L 940.5 410 L 940 379 Z " /><path fill="rgb(253,249,237)" stroke="rgb(253,249,237)" stroke-width="1" opacity="0.9921568627450981" d="M 1069.5 400 L 1070.5 402 L 1072 401.5 L 1069 403 L 1069.5 400 Z " /><path fill="rgb(253,249,237)" stroke="rgb(253,249,237)" stroke-width="1" opacity="0.9921568627450981" d="M 464.5 408 L 465.5 410 L 464.5 408 Z " /><path fill="rgb(253,249,237)" stroke="rgb(253,249,237)" stroke-width="1" opacity="0.9921568627450981" d="M 1071.5 408 L 1070.5 410 L 1071.5 408 Z " /><path fill="rgb(253,249,237)" stroke="rgb(253,249,237)" stroke-width="1" opacity="0.9921568627450981" d="M 1075.5 431 L 1076.5 433 L 1075.5 431 Z " /><path fill="rgb(253,249,237)" stroke="rgb(253,249,237)" stroke-width="1" opacity="0.9921568627450981" d="M 959.5 452 L 961 452.5 L 961 629.5 Q 958.5 636.5 946.5 634 L 931.5 631 L 914.5 630 L 913.5 629 L 901.5 629 L 900.5 628 L 845.5 628 L 844.5 629 L 824.5 630 L 823.5 631 L 806.5 633 L 806.5 632 L 826.5 623 L 851.5 616 L 867.5 613 L 874.5 613 L 875.5 612 L 884.5 612 L 885.5 611 L 925.5 610 Q 933.1 608.1 937 602.5 L 940 595.5 L 940 465.5 L 941.5 464 L 959.5 452 Z " /><path fill="rgb(253,249,237)" stroke="rgb(253,249,237)" stroke-width="1" opacity="0.9921568627450981" d="M 577.5 497 L 597 537.5 L 596 538.5 L 596 590.5 L 598 599.5 L 604.5 607 L 610.5 610 L 652.5 611 L 653.5 612 L 662.5 612 L 663.5 613 L 682.5 615 L 714.5 624 L 731 632.5 L 729.5 633 L 722.5 631 L 708.5 630 L 707.5 629 L 695.5 629 L 694.5 628 L 638.5 628 L 637.5 629 L 626.5 629 L 625.5 630 L 600.5 632 L 593.5 634 L 581.5 634 L 577 628.5 L 577.5 497 Z " /><path fill="rgb(253,249,237)" stroke="rgb(253,249,237)" stroke-width="1" opacity="0.9921568627450981" d="M 464.5 560 L 467 560.5 L 465.5 563 L 464.5 560 Z " /><path fill="rgb(253,249,237)" stroke="rgb(253,249,237)" stroke-width="1" opacity="0.9921568627450981" d="M 464.5 565 L 467 566.5 L 465.5 566 L 464.5 565 Z " /><path fill="rgb(253,249,237)" stroke="rgb(253,249,237)" stroke-width="1" opacity="0.9921568627450981" d="M 468.5 571 L 469.5 573 L 468.5 571 Z " /><path fill="rgb(253,249,237)" stroke="rgb(253,249,237)" stroke-width="1" opacity="0.9921568627450981" d="M 473.5 589 L 476 590.5 L 474.5 590 L 473.5 589 Z " /><path fill="rgb(253,249,237)" stroke="rgb(253,249,237)" stroke-width="1" opacity="0.9921568627450981" d="M 477.5 592 L 476.5 594 L 477.5 592 Z " /><path fill="rgb(253,249,237)" stroke="rgb(253,249,237)" stroke-width="1" opacity="0.9921568627450981" d="M 492.5 627 L 493 628.5 Q 491.5 631.5 490 628.5 L 492 628.5 L 492.5 627 Z " /><path fill="rgb(253,249,237)" stroke="rgb(253,249,237)" stroke-width="1" opacity="0.9921568627450981" d="M 493.5 630 L 494.5 632 L 493.5 630 Z " /><path fill="rgb(253,249,237)" stroke="rgb(253,249,237)" stroke-width="1" opacity="0.9921568627450981" d="M 516.5 668 L 518 668.5 L 515.5 670 L 516.5 668 Z " /><path fill="rgb(253,249,237)" stroke="rgb(253,249,237)" stroke-width="1" opacity="0.9921568627450981" d="M 1015.5 673 L 1014.5 675 L 1015.5 673 Z " /><path fill="rgb(253,249,237)" stroke="rgb(253,249,237)" stroke-width="1" opacity="0.9921568627450981" d="M 996.5 697 L 997 699.5 L 996 699.5 L 996.5 697 Z " /><path fill="rgb(253,249,237)" stroke="rgb(253,249,237)" stroke-width="1" opacity="0.9921568627450981" d="M 999.5 697 L 998.5 699 L 999.5 697 Z " /><path fill="rgb(253,249,237)" stroke="rgb(253,249,237)" stroke-width="1" opacity="0.9921568627450981" d="M 545.5 699 L 546.5 701 L 545.5 699 Z " /><path fill="rgb(253,249,237)" stroke="rgb(253,249,237)" stroke-width="1" opacity="0.9921568627450981" d="M 544.5 701 L 545.5 703 L 544.5 701 Z " /><path fill="rgb(253,249,237)" stroke="rgb(253,249,237)" stroke-width="1" opacity="0.9921568627450981" d="M 556.5 710 L 557.5 712 L 556.5 710 Z " /><path fill="rgb(253,249,237)" stroke="rgb(253,249,237)" stroke-width="1" opacity="0.9921568627450981" d="M 563.5 716 L 564.5 718 L 562 717.5 L 563.5 716 Z " /><path fill="rgb(253,249,237)" stroke="rgb(253,249,237)" stroke-width="1" opacity="0.9921568627450981" d="M 967.5 722 L 966.5 724 L 967.5 722 Z " /><path fill="rgb(253,249,237)" stroke="rgb(253,249,237)" stroke-width="1" opacity="0.9921568627450981" d="M 595.5 741 L 596.5 743 L 595.5 741 Z " /><path fill="rgb(253,249,237)" stroke="rgb(253,249,237)" stroke-width="1" opacity="0.9921568627450981" d="M 618.5 754 L 617.5 756 L 618.5 754 Z " /><path fill="rgb(253,249,237)" stroke="rgb(253,249,237)" stroke-width="1" opacity="0.9921568627450981" d="M 641.5 766 L 640.5 768 L 641.5 766 Z " /><path fill="rgb(253,249,237)" stroke="rgb(253,249,237)" stroke-width="1" opacity="0.9921568627450981" d="M 654.5 770 L 656.5 773 Q 658.8 772.3 658 774.5 L 656.5 774 Q 654.3 774.8 655 772.5 L 654.5 770 Z " /><path fill="rgb(253,249,237)" stroke="rgb(253,249,237)" stroke-width="1" opacity="0.9921568627450981" d="M 721.5 789 L 722.5 791 Q 719.7 791.7 721.5 789 Z " /><path fill="rgb(253,249,237)" stroke="rgb(253,249,237)" stroke-width="1" opacity="0.9921568627450981" d="M 725.5 790 Q 728.8 788.9 728 791.5 L 726.5 791 L 725.5 790 Z " /><path fill="rgb(146,115,92)" stroke="rgb(146,115,92)" stroke-width="1" opacity="0.9725490196078431" d="M 747.5 180 L 750 180.5 L 747.5 181 L 747.5 180 Z " /><path fill="rgb(146,115,92)" stroke="rgb(146,115,92)" stroke-width="1" opacity="0.9725490196078431" d="M 767.5 181 L 768.5 182 L 792.5 182 L 793.5 183 L 812.5 184 L 856.5 193 L 858 192.5 L 857.5 194 L 880.5 201 L 882 200.5 L 881.5 202 L 900.5 209 L 902 208.5 L 901.5 210 L 908.5 213 L 908.5 211 L 909.5 214 L 920.5 219 L 922 218.5 Q 919.8 219.8 922.5 221 L 930.5 225 L 932 224.5 L 931.5 226 L 933.5 225 L 934.5 228 L 950.5 238 L 952 237.5 L 951.5 239 L 963.5 247 L 984 264 Q 982.9 266.7 985.5 266 L 994.5 275 L 996 274.5 L 995.5 276 L 999 277.5 L 999 279.5 L 1001 282.5 Q 1025 306.5 1041.5 338 L 1043 337.5 L 1042 339.5 Q 1058.2 367.3 1067.5 402 L 1068.5 400 L 1069 401.5 L 1068 404.5 L 1070.5 413 L 1071.5 409 L 1072 412.5 L 1071 415.5 L 1075 432.5 L 1077 454.5 L 1078 455.5 L 1078 466.5 L 1079 467.5 L 1079 502.5 L 1078 503.5 L 1078 515.5 L 1077 516.5 L 1077 524.5 L 1076 525.5 L 1074 544.5 L 1068 569.5 L 1059 595.5 L 1061 595.5 L 1059.5 598 L 1058.5 596 Q 1034.2 657.2 991 699.5 L 991.5 701 L 990.5 700 L 981.5 709 L 980 709.5 L 980.5 711 L 979.5 710 L 971.5 718 L 963 724.5 L 963.5 726 Q 962.3 723.8 961 726.5 L 961.5 728 L 959.5 727 L 943 739.5 L 943.5 741 L 941.5 740 Q 921.7 754.2 898 764.5 L 898.5 766 L 895.5 765 Q 876.4 774.9 853 780.5 L 854.5 783 L 852 782.5 L 852.5 781 L 813.5 789 L 796.5 790 L 795.5 791 L 777.5 791 L 776.5 792 L 772.5 792 Q 767 793.5 765.5 791 L 762.5 792 L 757.5 791 L 743.5 791 L 742.5 790 L 724.5 789 L 684.5 781 L 682.5 782 L 682.5 781 L 684 780.5 L 660.5 773 L 658.5 774 L 658.5 773 L 660 772.5 L 634.5 762 L 634.5 764 L 633.5 761 L 622.5 756 L 621 756.5 Q 623.3 755.3 620.5 754 L 613.5 751 L 612 751.5 L 612.5 750 L 597.5 741 L 596 741.5 Q 598.3 740.3 595.5 739 L 593.5 738 L 592 738.5 L 592.5 737 L 570.5 721 L 569 721.5 L 570 720.5 L 566.5 717 L 563.5 715 L 561.5 715 Q 559.3 715.8 560 713.5 Q 562.8 711.8 558.5 710 L 556.5 709 L 553 709.5 L 554 706.5 Q 551.5 701.7 549 703.5 L 550 702.5 L 542.5 695 L 541 695.5 L 542 694.5 L 538.5 691 L 537 691.5 L 538 690.5 L 534 686.5 L 529.5 681 L 528 681.5 L 528 679.5 L 521 669 Q 518.3 670.1 519 667.5 L 516 666.5 L 517 664.5 L 514 663.5 L 515 661.5 L 509.5 654 L 508.5 655 Q 506.7 651.9 505 653.5 L 506 651.5 L 504 648.5 L 505 646.5 L 499.5 638 Q 498.2 640.3 497 637.5 L 498 635.5 L 496 635.5 L 497 633.5 L 482 604.5 L 477 590 L 474 588.5 Q 474.8 586.3 472.5 587 L 473.5 585 L 474.5 587 L 475 584.5 L 468.5 565 L 467.5 568 L 465 559.5 L 466 559.5 L 466.5 561 L 467 558.5 L 466 553 L 464 552.5 L 465 548.5 L 462 537.5 L 461 525.5 L 460 524.5 L 460 515.5 L 459 514.5 L 458 475.5 L 458 471.5 L 462 432.5 L 468 405.5 Q 477.4 370.9 493 342.5 L 492 340.5 L 495 339.5 L 514 308 L 512 307.5 L 514.5 306 Q 515.8 308.2 517 305.5 L 530 288.5 L 529.5 287 L 530.5 288 L 537 281.5 L 536.5 280 L 541 276.5 L 540.5 275 Q 541.8 277.3 543 274.5 L 538 272.5 L 539.5 273 L 543.5 274 Q 548.3 271.5 546.5 269 Q 547.8 271.3 549 268.5 L 548.5 267 L 549.5 268 L 552.5 265 L 560 258.5 L 559.5 257 L 561.5 257 L 571 249.5 L 570.5 248 L 572.5 248 L 576 245.5 L 575.5 244 L 577.5 244 L 593 233.5 L 591 232.5 L 592.5 232 L 594.5 233 L 607.5 224 L 636 209.5 L 635.5 208 L 637.5 209 L 653 202.5 L 652.5 201 L 655.5 202 L 677 194.5 Q 674.8 193.3 677.5 192 L 677.5 194 Q 680.8 195.1 680 192.5 L 681.5 193 L 717.5 185 L 724.5 185 L 732.5 183 L 742.5 183 L 743.5 182 L 766.5 182 L 767.5 181 Z M 743 196 L 742 197 L 732 197 L 731 198 L 712 200 L 682 207 L 645 221 Q 596 243 561 277 Q 521 314 497 368 Q 486 393 479 423 L 475 446 L 475 453 L 474 454 L 474 465 L 473 466 L 473 506 L 474 507 L 475 526 L 479 549 L 489 583 Q 511 640 549 682 Q 589 725 647 752 L 675 763 L 692 768 L 727 775 L 745 776 L 746 777 L 795 777 L 796 776 L 805 776 L 834 771 L 875 759 Q 928 738 968 702 Q 1012 662 1039 605 Q 1051 579 1058 548 L 1062 525 L 1062 518 L 1063 517 L 1063 506 L 1064 505 L 1064 468 L 1063 467 L 1061 440 L 1058 424 L 1049 391 Q 1028 331 989 290 Q 944 242 879 215 L 848 205 L 813 198 L 795 197 L 794 196 L 743 196 Z M 468 561 L 467 565 L 468 565 L 468 561 Z " /><path fill="rgb(146,115,92)" stroke="rgb(146,115,92)" stroke-width="1" opacity="0.9725490196078431" d="M 821.5 184 L 825 184.5 L 821.5 185 L 821.5 184 Z " /><path fill="rgb(146,115,92)" stroke="rgb(146,115,92)" stroke-width="1" opacity="0.9725490196078431" d="M 585.5 232 L 586 235.5 L 584 236.5 L 585.5 232 Z " /><path fill="rgb(146,115,92)" stroke="rgb(146,115,92)" stroke-width="1" opacity="0.9725490196078431" d="M 945.5 232 L 946.5 234 L 945.5 232 Z " /><path fill="rgb(146,115,92)" stroke="rgb(146,115,92)" stroke-width="1" opacity="0.9725490196078431" d="M 997.5 272 L 999 274.5 L 997 273.5 L 997.5 272 Z " /><path fill="rgb(146,115,92)" stroke="rgb(146,115,92)" stroke-width="1" opacity="0.9725490196078431" d="M 614.5 335 L 657.5 337 L 658.5 338 L 680.5 340 L 704.5 345 Q 728.2 351.3 747.5 362 Q 759.9 369.1 769.5 379 Q 793.8 356.3 830.5 346 L 875.5 337 L 921.5 335 L 931.5 338 L 937 343.5 L 940 349.5 L 940 367 L 960.5 368 L 970 375.5 L 974 385.5 L 974 426.5 L 978 431.5 L 977.5 433 L 980 434.5 L 979.5 436 Q 981.8 435.3 981 437.5 L 974 442.5 L 974 630.5 Q 972.3 638.8 966.5 643 Q 961.5 648.5 949.5 647 L 934.5 644 L 910.5 642 L 909.5 641 L 897.5 641 L 896.5 640 L 851.5 640 L 850.5 641 L 839.5 641 L 838.5 642 L 830.5 642 L 829.5 643 L 818.5 644 L 802.5 648 L 781.5 656 L 773.5 658 L 766.5 658 L 756.5 656 L 732.5 647 L 714.5 643 L 700.5 642 L 699.5 641 L 689.5 641 L 688.5 640 L 644.5 640 L 643.5 641 L 630.5 641 L 629.5 642 L 603.5 644 L 589.5 647 L 580.5 647 L 570 642 L 565 633.5 L 564 628.5 L 564 471.5 L 561 466.5 L 561.5 465 L 560 464.5 L 560.5 463 Q 558.3 463.8 559 461.5 L 561 461.5 Q 560.3 459.3 562.5 460 L 565 458.5 L 564 457.5 L 564 384.5 Q 566 374.5 573.5 370 L 581.5 367 L 597 366.5 L 596 365.5 L 596 354.5 L 599 344.5 L 605.5 338 L 614.5 335 Z M 617 347 L 611 350 L 609 355 L 609 442 L 622 437 L 624 438 L 624 436 L 641 430 Q 643 431 641 433 L 643 433 L 653 457 L 653 459 L 655 459 L 664 481 L 664 483 L 666 483 L 677 507 L 677 508 L 676 506 L 675 509 L 666 512 L 664 512 L 663 514 L 642 523 L 640 522 L 639 524 L 633 526 L 631 526 L 630 528 L 628 529 L 626 528 L 625 530 L 609 536 L 609 593 L 610 595 L 615 598 L 663 600 L 664 601 L 687 604 L 707 609 Q 737 618 761 635 L 763 637 L 763 395 L 758 386 Q 744 373 726 365 L 699 356 L 659 349 L 617 347 Z M 905 347 L 904 348 L 888 348 L 887 349 L 863 351 L 833 358 Q 805 366 785 382 Q 777 386 775 395 L 776 637 Q 800 618 835 608 L 868 601 L 885 600 L 886 599 L 923 598 L 926 596 L 928 592 L 928 473 L 917 481 Q 912 482 913 480 L 912 480 Q 908 481 909 479 L 908 479 Q 904 480 905 478 L 904 478 L 893 475 Q 888 476 889 474 L 888 474 L 881 473 L 883 466 Q 882 462 885 463 L 884 462 L 885 459 Q 884 455 887 456 L 886 455 Q 885 452 888 453 L 887 452 Q 886 448 889 449 L 888 448 L 889 446 Q 888 442 891 443 L 890 442 Q 891 439 893 441 L 893 440 Q 894 437 896 439 L 896 438 L 898 438 L 898 437 L 901 435 L 903 435 L 903 434 L 909 430 L 911 430 L 911 429 L 924 421 Q 925 417 927 420 L 928 418 L 928 355 L 927 352 L 922 347 L 905 347 Z M 585 379 L 582 380 L 577 386 L 577 454 L 597 447 L 596 446 L 596 380 L 596 379 L 585 379 Z M 940 379 L 941 410 L 949 405 Q 950 401 952 404 L 955 400 L 958 405 L 961 407 L 961 387 L 959 383 L 954 379 L 940 379 Z M 960 452 L 942 464 L 940 466 L 940 596 L 937 603 Q 933 608 926 610 L 886 611 L 885 612 L 876 612 L 875 613 L 868 613 L 852 616 L 827 623 L 807 632 L 807 633 L 824 631 L 825 630 L 845 629 L 846 628 L 901 628 L 902 629 L 914 629 L 915 630 L 932 631 L 947 634 Q 958 636 961 630 L 961 453 L 960 452 Z M 578 497 L 577 629 L 582 634 L 594 634 L 601 632 L 626 630 L 627 629 L 638 629 L 639 628 L 695 628 L 696 629 L 716 630 L 724 632 L 729 632 L 715 624 L 683 615 L 664 613 L 663 612 L 654 612 L 653 611 L 611 610 L 605 607 L 598 600 L 596 591 L 596 539 L 597 538 L 584 510 L 584 508 L 582 507 L 578 497 Z " /><path fill="rgb(146,115,92)" stroke="rgb(146,115,92)" stroke-width="1" opacity="0.9725490196078431" d="M 473.5 380 L 474.5 382 L 473.5 380 Z " /><path fill="rgb(146,115,92)" stroke="rgb(146,115,92)" stroke-width="1" opacity="0.9725490196078431" d="M 491.5 626 L 491.5 629 Q 488.5 627.5 491.5 626 Z " /><path fill="rgb(146,115,92)" stroke="rgb(146,115,92)" stroke-width="1" opacity="0.9725490196078431" d="M 1044.5 629 L 1045 631.5 L 1044 631.5 L 1044.5 629 Z " /><path fill="rgb(146,115,92)" stroke="rgb(146,115,92)" stroke-width="1" opacity="0.9725490196078431" d="M 544.5 699 L 546.5 702 Q 544.3 702.8 545 700.5 L 544.5 699 Z " /><path fill="rgb(146,115,92)" stroke="rgb(146,115,92)" stroke-width="1" opacity="0.9725490196078431" d="M 562.5 718 L 564.5 718 L 566 718.5 L 563.5 720 L 562.5 718 Z " /><path fill="rgb(146,115,92)" stroke="rgb(146,115,92)" stroke-width="1" opacity="0.9725490196078431" d="M 85.5 757 L 84.5 759 L 85.5 757 Z " /><path fill="rgb(146,115,92)" stroke="rgb(146,115,92)" stroke-width="1" opacity="0.9725490196078431" d="M 713.5 788 L 716 788.5 L 713.5 789 L 713.5 788 Z " /><path fill="rgb(146,115,92)" stroke="rgb(146,115,92)" stroke-width="1" opacity="0.9725490196078431" d="M 722.5 789 L 725 790.5 L 723.5 791 L 722.5 789 Z " /><path fill="rgb(146,115,92)" stroke="rgb(146,115,92)" stroke-width="1" opacity="0.9725490196078431" d="M 85.5 797 L 84.5 799 L 85.5 797 Z " /></svg>